<svg width="68" height="51" viewBox="0 0 68 51" fill="none" xmlns="http://www.w3.org/2000/svg">
<path d="M2.863 41.1283V45.6172H4.11856C5.43742 45.6172 6.34478 44.7129 6.34478 43.3942V43.3729C6.34478 42.0538 5.43742 41.1283 4.11856 41.1283H2.863ZM1.23828 39.6495H4.11856C6.43971 39.6495 8.04345 41.2558 8.04345 43.3513V43.3729C8.04345 45.4684 6.43971 47.0957 4.11856 47.0957H1.23828V39.6495Z" fill="#1A1A1A"/>
<path d="M10.4277 43.9046V39.6495H12.0526V43.8621C12.0526 45.0855 12.6434 45.7022 13.6458 45.7022C14.6481 45.7022 15.2389 45.1068 15.2389 43.9152V39.6495H16.8637V43.8515C16.8637 46.1064 15.6082 47.213 13.6247 47.213C11.6411 47.213 10.4277 46.1064 10.4277 43.9046Z" fill="#1A1A1A"/>
<path d="M19.5752 39.6495H21.0733L24.5339 44.2344V39.6495H26.1377V47.0957H24.7556L21.1788 42.3624V47.0957H19.5752V39.6495Z" fill="#1A1A1A"/>
<path d="M28.9653 39.6495H34.536V41.107H30.5795V42.6174H34.0614V44.075H30.5795V45.6385H34.5887V47.0957H28.9653V39.6495Z" fill="#1A1A1A"/>
<path d="M38.7139 41.1283V45.6172H39.9695C41.2884 45.6172 42.1958 44.7129 42.1958 43.3942V43.3729C42.1958 42.0538 41.2884 41.1283 39.9695 41.1283H38.7139ZM37.0894 39.6495H39.9695C42.2907 39.6495 43.8945 41.2558 43.8945 43.3513V43.3729C43.8945 45.4684 42.2907 47.0957 39.9695 47.0957H37.0894V39.6495Z" fill="#1A1A1A"/>
<path d="M50.109 43.979L49.1277 41.5643L48.1465 43.979H50.109ZM48.3998 39.5963H49.8978L53.0632 47.0957H51.3646L50.6893 45.4256H47.5661L46.8909 47.0957H45.2344L48.3998 39.5963Z" fill="#8097AE"/>
<path d="M55.3315 39.6495H56.9564V47.0957H55.3315V39.6495Z" fill="#8097AE"/>
<path d="M59.8574 39.6495H61.3557L64.8161 44.2344V39.6495H66.4199V47.0957H65.0378L61.4609 42.3624V47.0957H59.8574V39.6495Z" fill="#1A1A1A"/>
<path d="M23.5307 25.9899L25.8544 32.1143H13.9761L26.8559 8.36447L23.0158 2.05084H37.8136L42.1772 8.36447L51.8084 22.3095H45.0879L35.6339 8.36447H33.0875L23.5307 25.9899Z" fill="#1A1A1A"/>
<path d="M53.6825 26.5882L50.8897 31.7425L50.6891 32.1143H31.3355L28.9375 25.7963L32.0336 20.0854L34.532 15.4789L37.9945 20.5848L34.7326 26.6014L53.6825 26.5882Z" fill="#1A1A1A"/>
</svg>